<svg width="24" height="24" viewBox="0 0 24 24" fill="none" xmlns="http://www.w3.org/2000/svg">
    <g clip-path="url(#clip0_3339_28457)">
        <path d="M3.5716 12.8895L3.00977 9.96804C2.94651 9.63911 3.19856 9.33398 3.53351 9.33398H20.0199C20.3549 9.33398 20.6069 9.63911 20.5437 9.96804L19.9819 12.8895M3.5716 12.8895H19.9819M3.5716 12.8895L4.11861 16.4451M19.9819 12.8895L19.4349 16.4451M4.11861 16.4451L4.59604 19.5484C4.63607 19.8086 4.85993 20.0007 5.12317 20.0007H18.4302C18.6935 20.0007 18.9173 19.8086 18.9574 19.5484L19.4349 16.4451M4.11861 16.4451H19.4349" stroke="#3A373D" stroke-width="1.5"/>
        <path d="M8.22266 9.33333V5.77778C8.22266 4.79594 9.01859 4 10.0004 4H13.556C14.5379 4 15.3338 4.79594 15.3338 5.77778V9.33333" stroke="#3A373D" stroke-width="1.5"/>
    </g>
    <defs>
        <clipPath id="clip0_3339_28457">
            <rect width="24" height="24" fill="white"/>
        </clipPath>
    </defs>
</svg>
