<svg width="24" height="24" viewBox="0 0 24 24" fill="none" xmlns="http://www.w3.org/2000/svg">
<path d="M21.7783 18.2205L21.5983 17.3205C20.4183 11.4305 14.1583 10.7605 12.8683 10.6905V10.6505C12.8683 10.6505 12.7783 10.6505 12.7383 10.6405C12.4483 10.5805 12.2283 10.3505 12.1883 10.0505C12.1683 9.89047 12.1483 9.75047 12.1483 9.68047V4.67047C12.1483 3.33047 11.0583 2.23047 9.71828 2.23047L5.27828 3.44047C3.38828 3.55047 2.23828 6.29047 2.23828 7.80047V18.6205C2.23828 18.9905 2.26828 19.3305 2.31828 19.6305C2.51828 20.8505 3.64828 21.7705 4.93828 21.7705H18.6283C19.4383 21.7705 20.1383 21.4905 20.6683 20.9505C21.5383 20.0705 21.7083 18.7805 21.7383 18.2105H21.8083L21.7783 18.2205ZM5.37828 4.94047L9.79828 3.74047C10.2683 3.78047 10.6383 4.18047 10.6383 4.67047V9.68047C10.6383 9.79047 10.6583 10.0205 10.6983 10.2805C10.8183 11.0805 11.3783 11.7205 12.1183 11.9905C12.0583 12.5105 11.8583 13.3105 11.1583 13.6205C11.0783 13.6605 10.9883 13.6905 10.8883 13.7105C10.8483 13.7205 10.7983 13.7305 10.7583 13.7405L9.99828 13.9105V13.9305C9.46828 14.1105 9.31828 14.3105 9.42828 14.8105C9.54828 15.3105 9.80828 15.4205 10.3283 15.3505V15.3705L10.9983 15.2205C11.0583 15.2105 11.1283 15.1905 11.1983 15.1705C11.2083 15.1705 11.2183 15.1705 11.2283 15.1705L11.3483 15.1405C11.4983 15.0905 11.6383 15.0505 11.7583 14.9905C13.0683 14.4105 13.4683 13.1205 13.5883 12.2605C15.2983 12.4905 18.7083 13.3605 19.8683 16.7205H8.37828C8.01828 15.8105 6.93828 14.5105 3.70828 14.3305V7.79047C3.70828 6.70047 4.62828 4.93047 5.35828 4.93047L5.37828 4.94047ZM19.5783 19.9005C19.3283 20.1505 19.0183 20.2705 18.6083 20.2705H18.5083C18.5083 20.2705 18.5283 20.2105 18.5283 20.1705C18.5283 19.7605 18.1983 19.4305 17.7883 19.4305C17.3783 19.4305 17.0483 19.7605 17.0483 20.1705C17.0483 20.2005 17.0683 20.2305 17.0683 20.2705H15.5083C15.5083 20.2705 15.5283 20.2105 15.5283 20.1705C15.5283 19.7605 15.1983 19.4305 14.7883 19.4305C14.3783 19.4305 14.0483 19.7605 14.0483 20.1705C14.0483 20.2005 14.0683 20.2305 14.0683 20.2705H12.5183C12.5183 20.2705 12.5183 20.2505 12.5183 20.2305C12.5183 19.8205 12.1883 19.4905 11.7783 19.4905C11.3683 19.4905 11.0383 19.8205 11.0383 20.2305C11.0383 20.2405 11.0383 20.2505 11.0383 20.2705H9.49828C9.49828 20.2705 9.49828 20.2505 9.49828 20.2305C9.49828 19.8205 9.16828 19.4905 8.75828 19.4905C8.34828 19.4905 8.01828 19.8205 8.01828 20.2305C8.01828 20.2405 8.01828 20.2505 8.01828 20.2705H6.47828C6.47828 20.2705 6.47828 20.2505 6.47828 20.2305C6.47828 19.8205 6.14828 19.4905 5.73828 19.4905C5.32828 19.4905 4.99828 19.8205 4.99828 20.2305C4.99828 20.2405 4.99828 20.2505 4.99828 20.2705H4.88828C4.32828 20.2705 3.83828 19.8905 3.74828 19.3805C3.70828 19.1605 3.68828 18.9005 3.68828 18.6105V15.8305C6.33828 15.9905 6.87828 17.0105 6.98828 17.3405C7.15828 17.8605 7.62828 18.2105 8.16828 18.2105H20.1783C20.1383 18.6705 19.9883 19.4505 19.5383 19.8905L19.5783 19.9005ZM9.07828 7.14047C9.48828 7.14047 9.81828 6.81047 9.81828 6.40047C9.81828 5.99047 9.48828 5.66047 9.07828 5.66047C8.66828 5.66047 8.33828 5.99047 8.33828 6.40047C8.33828 6.81047 8.66828 7.14047 9.07828 7.14047ZM9.07828 6.14047C9.21828 6.14047 9.33828 6.26047 9.33828 6.40047C9.33828 6.69047 8.81828 6.69047 8.81828 6.40047C8.81828 6.26047 8.93828 6.14047 9.07828 6.14047ZM9.07828 9.93047C9.48828 9.93047 9.81828 9.60047 9.81828 9.19047C9.81828 8.78047 9.48828 8.45047 9.07828 8.45047C8.66828 8.45047 8.33828 8.78047 8.33828 9.19047C8.33828 9.60047 8.66828 9.93047 9.07828 9.93047ZM9.07828 8.93047C9.21828 8.93047 9.33828 9.05047 9.33828 9.19047C9.33828 9.48047 8.81828 9.48047 8.81828 9.19047C8.81828 9.05047 8.93828 8.93047 9.07828 8.93047ZM9.22828 11.9305C9.22828 12.3405 9.55828 12.6705 9.96828 12.6705C10.3783 12.6705 10.7083 12.3405 10.7083 11.9305C10.7083 11.5205 10.3783 11.1905 9.96828 11.1905C9.55828 11.1905 9.22828 11.5205 9.22828 11.9305ZM9.96828 11.6705C10.1083 11.6705 10.2283 11.7905 10.2283 11.9305C10.2283 12.2205 9.70828 12.2205 9.70828 11.9305C9.70828 11.7905 9.82828 11.6705 9.96828 11.6705Z" fill="#3A373D"/>
</svg>
