<svg width="24" height="24" viewBox="0 0 24 24" fill="none" xmlns="http://www.w3.org/2000/svg">
<path d="M13.7205 18.7792L6.83047 18.7592C5.78047 18.7592 4.92047 17.8992 4.92047 16.8492V9.57924H2.70047C2.02047 9.57924 1.48047 9.02924 1.48047 8.35924V4.38924C1.48047 3.95924 1.76047 3.57924 2.17047 3.43924C4.59047 2.63924 5.89047 2.40924 6.45047 2.33924C6.70047 2.30924 7.10047 2.33924 7.51047 2.63924C8.01047 3.00924 9.06047 3.28924 10.3905 3.39924C11.6405 3.26924 12.5805 3.00924 13.0605 2.65924C13.4705 2.34924 13.8605 2.32924 14.1205 2.35924C14.6805 2.42924 15.9805 2.65924 18.3905 3.45924C18.8005 3.59924 19.0805 3.97924 19.0805 4.40924V8.37924C19.0805 9.05924 18.5305 9.59924 17.8605 9.59924H15.6405V16.8692C15.6405 17.9192 14.7805 18.7792 13.7305 18.7792H13.7205ZM9.89047 17.2492H13.7205C13.9305 17.2492 14.1005 17.0792 14.1005 16.8692V8.06924H17.5405V4.79924C15.4905 4.13924 14.4005 3.93924 13.9205 3.87924C13.2305 4.42924 12.0605 4.77924 10.4605 4.92924H10.3905H10.3205C8.60047 4.78924 7.35047 4.42924 6.58047 3.86924C6.23047 3.90924 5.14047 4.08924 3.00047 4.77924V8.04924H6.44047V16.8492C6.44047 17.0592 6.61047 17.2292 6.82047 17.2292L9.88047 17.2492H9.89047ZM6.44047 8.03924V7.67924C6.44047 7.25924 6.10047 6.90924 5.67047 6.90924C5.24047 6.90924 4.90047 7.24924 4.90047 7.67924V8.03924M15.6105 8.82924V7.67924C15.6105 7.25924 15.2705 6.90924 14.8405 6.90924C14.4105 6.90924 14.0705 7.24924 14.0705 7.67924V8.82924C14.0705 9.24924 14.4105 9.59924 14.8405 9.59924C15.2705 9.59924 15.6105 9.25924 15.6105 8.82924ZM17.1405 22.2392L10.2505 22.2192C9.20047 22.2192 8.34047 21.3592 8.34047 20.3092V17.9892H9.11047V17.2492H13.7005C13.9105 17.2492 14.0805 17.0792 14.0805 16.8692V8.06924H17.5205V5.78924L18.4405 5.97924C19.3605 6.16924 20.4905 6.48924 21.8005 6.91924C22.2105 7.05924 22.4905 7.43924 22.4905 7.86924V11.8392C22.4905 12.5192 21.9405 13.0592 21.2705 13.0592H19.0505V20.3292C19.0505 21.3792 18.1905 22.2392 17.1405 22.2392ZM9.87047 18.7792V20.3092C9.87047 20.5192 10.0405 20.6892 10.2505 20.6892L17.1405 20.7092C17.3505 20.7092 17.5205 20.5392 17.5205 20.3292V11.5292H20.9605V8.25924C20.2605 8.02924 19.6205 7.84924 19.0505 7.69924V8.37924C19.0505 9.05924 18.5005 9.59924 17.8305 9.59924H15.6105V16.8692C15.6105 17.9192 14.7505 18.7792 13.7005 18.7792H9.87047ZM19.0505 11.5292V11.1292C19.0505 10.7092 18.7105 10.3592 18.2805 10.3592C17.8505 10.3592 17.5105 10.6992 17.5105 11.1292V11.5292M12.6505 8.59924C12.6505 7.99924 12.1605 7.51924 11.5705 7.51924C11.4605 7.51924 11.3505 7.53924 11.2505 7.56924C11.2505 7.54924 11.2505 7.53924 11.2505 7.51924C11.2505 6.91924 10.7605 6.43924 10.1705 6.43924C9.58047 6.43924 9.13047 6.88924 9.09047 7.44924C9.04047 7.44924 8.98047 7.43924 8.93047 7.43924C8.33047 7.43924 7.85047 7.92924 7.85047 8.51924C7.85047 8.90924 8.06047 9.24924 8.37047 9.43924C8.31047 9.56924 8.28047 9.71924 8.28047 9.86924C8.28047 10.4692 8.77047 10.9492 9.36047 10.9492C9.72047 10.9492 10.0505 10.7692 10.2405 10.4992C10.4405 10.7692 10.7605 10.9492 11.1205 10.9492C11.7205 10.9492 12.2005 10.4592 12.2005 9.86924C12.2005 9.74924 12.1805 9.62924 12.1405 9.51924C12.4505 9.32924 12.6505 8.98924 12.6505 8.59924ZM10.2405 9.59924C9.79047 9.59924 9.43047 9.23924 9.43047 8.78924C9.43047 8.33924 9.79047 7.97924 10.2405 7.97924C10.6905 7.97924 11.0505 8.33924 11.0505 8.78924C11.0505 9.23924 10.6905 9.59924 10.2405 9.59924Z" fill="#3A373D"/>
</svg>
