<svg width="24" height="24" viewBox="0 0 24 24" fill="none" xmlns="http://www.w3.org/2000/svg">
<path d="M15.5201 8.10978C15.4201 7.98978 15.4101 7.80978 15.5101 7.66978C16.7101 5.98978 16.8801 4.25978 16.9001 3.59978C16.9101 3.25978 16.8201 2.91978 16.6501 2.62978C16.0601 1.65978 15.3401 1.08978 14.5101 0.929784C13.6901 0.769784 12.8101 1.02978 11.9601 1.66978C11.8301 1.76978 11.6701 1.70978 11.5701 1.63978C10.8201 1.06978 10.0401 0.839784 9.26014 0.949784C8.08014 1.11978 7.25014 2.01978 6.85014 2.54978C6.59014 2.89978 6.46014 3.31978 6.49014 3.74978C6.63014 5.81978 7.46014 7.18978 8.14014 7.97978C8.26014 8.11978 8.22014 8.31978 8.12014 8.43978C4.15014 13.3398 3.53014 17.6998 3.45014 19.3398C3.41014 20.0498 3.79014 20.7098 4.40014 21.0398C6.93014 22.3798 9.40014 22.8298 11.5901 22.8298C15.1601 22.8298 17.9901 21.6298 19.0801 21.0798C19.7401 20.7498 20.1401 20.0398 20.0701 19.2998C19.5401 13.3698 16.7101 9.49978 15.5201 8.10978ZM7.93014 3.63978C7.93014 3.55978 7.95014 3.46978 8.00014 3.39978C8.21014 3.11978 8.77014 2.45978 9.45014 2.35978C9.51014 2.35978 9.57014 2.34978 9.62014 2.34978C9.96014 2.34978 10.3101 2.48978 10.6801 2.76978C11.3301 3.25978 12.1901 3.27978 12.8101 2.80978C13.1701 2.53978 13.7101 2.23978 14.2201 2.33978C14.6401 2.41978 15.0401 2.76978 15.4001 3.36978C15.4301 3.41978 15.4501 3.48978 15.4501 3.54978C15.4301 4.07978 15.2901 5.46978 14.3201 6.82978C14.1501 7.05978 14.0701 7.32978 14.0301 7.59978C12.8901 7.90978 10.7601 7.85978 9.56014 7.65978C9.49014 7.43978 9.39014 7.21978 9.23014 7.03978C8.70014 6.41978 8.04014 5.32978 7.93014 3.64978V3.63978ZM18.4301 19.7698C16.3701 20.7998 10.9401 22.8498 5.07014 19.7498C4.95014 19.6898 4.88014 19.5498 4.89014 19.3998C4.96014 17.8998 5.54014 13.9098 9.24014 9.33978C9.31014 9.25978 9.34014 9.15978 9.39014 9.07978C9.61014 9.11978 9.85014 9.14978 10.1101 9.17978C9.76014 10.0898 9.72014 11.4098 9.69014 12.8598C9.69014 13.2598 10.0001 13.5898 10.4001 13.5998H10.4101C10.8001 13.5998 11.1301 13.2898 11.1301 12.8898C11.1901 9.65978 11.4501 9.40978 11.7801 9.40978C12.1101 9.40978 12.4101 9.67978 12.4101 12.8798C12.4101 13.2798 12.7301 13.5998 13.1301 13.5998C13.5301 13.5998 13.8501 13.2798 13.8501 12.8798C13.8501 11.5098 13.8501 10.1198 13.4701 9.16978C13.7801 9.12978 14.0901 9.06978 14.3601 8.99978C14.3801 9.01978 14.3801 9.03978 14.4001 9.05978C15.5001 10.3398 18.1201 13.9098 18.6101 19.4298C18.6201 19.5698 18.5401 19.7198 18.4101 19.7798L18.4301 19.7698Z" fill="#3A373D"/>
</svg>
