<svg width="24" height="24" viewBox="0 0 24 24" fill="none" xmlns="http://www.w3.org/2000/svg">
<path d="M22.8208 14.8994C22.7708 14.6794 22.6808 14.4894 22.5608 14.3094C22.1808 13.7294 20.6808 11.8194 17.3908 11.8194C15.4508 11.8194 13.0608 8.78937 11.4608 5.94937C11.0808 5.26937 10.3608 4.85938 9.59078 4.85938H3.46078C2.40078 4.85938 1.55078 5.71937 1.55078 6.76937V17.2194C1.55078 17.9894 2.06078 19.1294 3.46078 19.1294H8.10078C8.86078 19.1294 9.98078 18.6294 10.0108 17.2694L12.5908 18.5594C13.3408 18.9294 14.1708 19.1294 15.0008 19.1294H19.7108C20.9208 19.1294 21.8208 18.7594 22.3808 18.0394C23.2208 16.9594 22.9708 15.4794 22.8208 14.8894V14.8994ZM8.11078 17.6294H3.46078C3.33078 17.6294 3.07078 17.6294 3.05078 17.2194V16.8094H8.51078V17.2194C8.51078 17.3494 8.51078 17.6094 8.10078 17.6294H8.11078ZM21.2008 17.1194C20.9408 17.4594 20.4408 17.6294 19.7208 17.6294H15.0108C14.4108 17.6294 13.8108 17.4894 13.2708 17.2194L9.45078 15.3094H3.05078V6.77938C3.05078 6.55938 3.23078 6.36937 3.46078 6.36937H9.59078C9.82078 6.36937 10.0308 6.48937 10.1508 6.69937C11.5408 9.17937 14.3308 13.3394 17.3908 13.3394C19.9208 13.3394 21.0208 14.7194 21.3008 15.1394C21.3308 15.1794 21.3408 15.2194 21.3608 15.2694C21.4308 15.5594 21.6408 16.5494 21.2008 17.1194Z" fill="#3A373D"/>
</svg>
