<svg width="24" height="24" viewBox="0 0 24 24" fill="none" xmlns="http://www.w3.org/2000/svg">
<path d="M16.1402 21.0202H7.8602C6.8802 21.0202 6.0802 20.2202 6.0802 19.2402V12.3702L4.5302 13.4002C4.2502 13.5902 3.9102 13.6402 3.5902 13.5602C3.2702 13.4702 3.0002 13.2502 2.8502 12.9602L1.1602 9.57023C0.9002 9.05023 1.0702 8.41023 1.5602 8.08023L7.4002 4.19023L8.6002 2.99023H15.4202L16.6202 4.19023L22.4602 8.08023C22.9502 8.40023 23.1202 9.04023 22.8602 9.57023L21.1702 12.9602C21.0202 13.2602 20.7502 13.4802 20.4302 13.5602C20.1102 13.6502 19.7602 13.5902 19.4902 13.4002L17.9502 12.3702V19.2402C17.9502 20.2202 17.1502 21.0202 16.1702 21.0202H16.1402ZM7.5802 10.9802V19.2402C7.5802 19.3902 7.7102 19.5202 7.8602 19.5202H16.1302C16.2802 19.5202 16.4102 19.3902 16.4102 19.2402V9.94023C16.4102 9.53023 16.7502 9.19023 17.1602 9.19023C17.5702 9.19023 17.9102 9.53023 17.9102 9.94023V10.5702L19.9702 11.9402L21.3602 9.16023L16.3302 5.81023L15.0602 7.71023C14.8402 8.04023 14.4902 8.25023 14.1002 8.29023C13.7002 8.33023 13.3202 8.19023 13.0402 7.91023L11.9902 6.86023L10.9402 7.91023C10.6602 8.19023 10.2702 8.33023 9.8802 8.29023C9.4902 8.25023 9.1302 8.04023 8.9102 7.71023L7.6402 5.81023L2.6102 9.16023L4.0002 11.9402L6.0602 10.5702V9.94023C6.0602 9.53023 6.4002 9.19023 6.8102 9.19023C7.2202 9.19023 7.5602 9.53023 7.5602 9.94023V10.9802H7.5802ZM12.0002 4.74023L13.9502 6.69023L15.1702 4.86023L14.7902 4.48023H9.2102L8.8302 4.86023L10.0502 6.69023L12.0002 4.74023Z" fill="#3A373D"/>
</svg>
