<svg width="24" height="24" viewBox="0 0 24 24" fill="none" xmlns="http://www.w3.org/2000/svg">
<path d="M21.2811 20.1906H13.0411C11.6011 20.1906 10.2311 19.6106 9.28109 18.6006C6.81109 15.9806 5.27109 12.1906 5.21109 12.0306C4.98109 11.5806 4.74109 11.5406 4.66109 11.5306C4.27109 11.4706 3.70109 11.8106 3.35109 12.0906V19.4506C3.35109 19.8606 3.02109 20.1906 2.61109 20.1906C2.20109 20.1906 1.87109 19.8606 1.87109 19.4506V8.02059C1.87109 7.39059 1.99109 6.77059 2.23109 6.18059C2.78109 4.81059 3.50109 4.02059 4.37109 3.84059C5.07109 3.70059 5.77109 3.97059 6.44109 4.64059C7.44109 5.64059 8.36109 7.51059 9.33109 9.49059C10.2111 11.2906 11.6911 14.3106 12.5111 14.3106C13.2211 14.3106 13.6411 14.0306 13.8511 13.4106C13.9911 13.0106 14.3111 12.7106 14.7011 12.5806C15.1011 12.4606 15.5211 12.5306 15.8511 12.7806L19.5411 15.5406C22.2311 17.1506 23.2411 18.2206 22.9711 19.2006C22.7711 19.9206 21.9711 20.1706 21.2911 20.1706L21.2811 20.1906ZM4.56109 10.0406C4.67109 10.0406 4.78109 10.0406 4.90109 10.0706C5.39109 10.1506 6.08109 10.4506 6.57109 11.4306C6.61109 11.5206 8.09109 15.1806 10.3611 17.5906C11.0311 18.3006 12.0111 18.7106 13.0411 18.7106H21.2811C21.2811 18.7106 21.3211 18.7106 21.3411 18.7106C21.0611 18.4006 20.3811 17.8006 18.7011 16.8006L15.1511 14.1406C14.6911 15.2006 13.7311 15.8106 12.4911 15.8106C10.7511 15.8106 9.46109 13.1906 7.98109 10.1606C7.11109 8.38059 6.20109 6.53059 5.38109 5.70059C5.21109 5.53059 4.90109 5.26059 4.66109 5.31059C4.42109 5.36059 4.00109 5.76059 3.60109 6.75059C3.43109 7.16059 3.35109 7.59059 3.35109 8.04059V10.3606C3.71109 10.1906 4.13109 10.0606 4.56109 10.0606V10.0406Z" fill="#3A373D"/>
</svg>
