<svg width="24" height="24" viewBox="0 0 24 24" fill="none" xmlns="http://www.w3.org/2000/svg">
<g clip-path="url(#clip0_532_20654)">
<path d="M15.5182 8.11076C15.4182 7.99076 15.4082 7.81076 15.5082 7.67076C16.7082 5.99076 16.8782 4.26076 16.8982 3.60076C16.9082 3.26076 16.8182 2.92076 16.6482 2.63076C16.0582 1.66076 15.3382 1.09076 14.5082 0.93076C13.6882 0.77076 12.8082 1.03076 11.9582 1.67076C11.8282 1.77076 11.6682 1.71076 11.5682 1.64076C10.8182 1.07076 10.0382 0.84076 9.25819 0.95076C8.07819 1.12076 7.24819 2.02076 6.84819 2.55076C6.58819 2.90076 6.45819 3.32076 6.48819 3.75076C6.62819 5.82076 7.45819 7.19076 8.13819 7.98076C8.25819 8.12076 8.21819 8.32076 8.11819 8.44076C4.14819 13.3408 3.52819 17.7008 3.44819 19.3408C3.40819 20.0508 3.78819 20.7108 4.39819 21.0408C6.92819 22.3808 9.39819 22.8308 11.5882 22.8308C15.1582 22.8308 17.9882 21.6308 19.0782 21.0808C19.7382 20.7508 20.1382 20.0408 20.0682 19.3008C19.5382 13.3708 16.7082 9.50076 15.5182 8.11076ZM7.92819 3.64076C7.92819 3.56076 7.94819 3.47076 7.99819 3.40076C8.20819 3.12076 8.76819 2.46076 9.44819 2.36076C9.50819 2.36076 9.56819 2.35076 9.61819 2.35076C9.95819 2.35076 10.3082 2.49076 10.6782 2.77076C11.3282 3.26076 12.1882 3.28076 12.8082 2.81076C13.1682 2.54076 13.7082 2.24076 14.2182 2.34076C14.6382 2.42076 15.0382 2.77076 15.3982 3.37076C15.4282 3.42076 15.4482 3.49076 15.4482 3.55076C15.4282 4.08076 15.2882 5.47076 14.3182 6.83076C14.1482 7.06076 14.0682 7.33076 14.0282 7.60076C12.8882 7.91076 10.7582 7.86076 9.55819 7.66076C9.48819 7.44076 9.38819 7.22076 9.22819 7.04076C8.69819 6.42076 8.03819 5.33076 7.92819 3.65076V3.64076ZM18.4282 19.7708C16.3682 20.8008 10.9382 22.8508 5.06819 19.7508C4.94819 19.6908 4.87819 19.5508 4.88819 19.4008C4.95819 17.9008 5.53819 13.9108 9.23819 9.34076C9.30819 9.26076 9.33819 9.16076 9.38819 9.08076C9.60819 9.12076 9.84819 9.15076 10.1082 9.18076C9.75819 10.0908 9.71819 11.4108 9.68819 12.8608C9.68819 13.2608 9.99819 13.5908 10.3982 13.6008H10.4082C10.7982 13.6008 11.1282 13.2908 11.1282 12.8908C11.1882 9.66076 11.4482 9.41076 11.7782 9.41076C12.1082 9.41076 12.4082 9.68076 12.4082 12.8808C12.4082 13.2808 12.7282 13.6008 13.1282 13.6008C13.5282 13.6008 13.8482 13.2808 13.8482 12.8808C13.8482 11.5108 13.8482 10.1208 13.4682 9.17076C13.7782 9.13076 14.0882 9.07076 14.3582 9.00076C14.3782 9.02076 14.3782 9.04076 14.3982 9.06076C15.4982 10.3408 18.1182 13.9108 18.6082 19.4308C18.6182 19.5708 18.5382 19.7208 18.4082 19.7808L18.4282 19.7708Z" fill="#3A373D"/>
</g>
<defs>
<clipPath id="clip0_532_20654">
<rect width="24" height="24" fill="white"/>
</clipPath>
</defs>
</svg>
