<svg width="24" height="24" viewBox="0 0 24 24" fill="none" xmlns="http://www.w3.org/2000/svg">
<path d="M8.50078 12V7.22M8.50078 22V19M15.5008 22V7.22M10.1008 5.3C10.1008 5.79 9.90078 6.25 9.57078 6.57C9.25078 6.9 8.80078 7.1 8.30078 7.1H6.05078C6.33078 6.73 6.50078 6.25 6.50078 5.75V4.85C6.50078 4.35 6.33078 3.87 6.05078 3.5H8.30078C9.29078 3.5 10.1008 4.31 10.1008 5.3V5.3Z" stroke="black" stroke-width="1.5" stroke-miterlimit="10" stroke-linecap="round" stroke-linejoin="round"/>
<path d="M6.5 4.84955V5.74955C6.5 6.24955 6.33 6.72955 6.05 7.09955C5.29 8.10955 3.73 8.44955 2.28 7.15955C2.12 7.01955 2 6.71955 2 6.49955V4.15955C2 3.96955 2.1 3.68955 2.23 3.54955C3.49 2.22955 5.01 2.41955 5.84 3.24955C5.91 3.31955 5.98 3.39955 6.05 3.48955C6.33 3.86955 6.5 4.34955 6.5 4.84955V4.84955ZM13.9 5.29955C13.9 5.78955 14.1 6.24955 14.43 6.56955C14.75 6.89955 15.2 7.09955 15.7 7.09955H17.95C17.67 6.72955 17.5 6.24955 17.5 5.74955V4.84955C17.5 4.34955 17.67 3.86955 17.95 3.49955H15.7C14.71 3.49955 13.9 4.30955 13.9 5.29955V5.29955Z" stroke="black" stroke-width="1.5" stroke-miterlimit="10" stroke-linecap="round" stroke-linejoin="round"/>
<path d="M17.5 4.84955V5.74955C17.5 6.24955 17.67 6.72955 17.95 7.09955C18.71 8.10955 20.27 8.44955 21.72 7.15955C21.88 7.01955 22 6.71955 22 6.49955V4.15955C22 3.96955 21.9 3.68955 21.77 3.54955C20.51 2.22955 18.99 2.41955 18.16 3.24955C18.09 3.31955 18.02 3.39955 17.95 3.48955C17.67 3.86955 17.5 4.34955 17.5 4.84955V4.84955ZM10 13.4996V17.4996C10 18.3296 9.33 18.9996 8.5 18.9996C7.67 18.9996 7 18.3296 7 17.4996V13.4996C7 12.6696 7.67 11.9996 8.5 11.9996C9.33 11.9996 10 12.6696 10 13.4996Z" stroke="black" stroke-width="1.5" stroke-miterlimit="10" stroke-linecap="round" stroke-linejoin="round"/>
</svg>
